<svg width="472" height="160" viewBox="0 0 472 160" version="1.1" xmlns="http://www.w3.org/2000/svg" xmlns:xlink="http://www.w3.org/1999/xlink">
<title>logo 2</title>
<desc>Created using Figma</desc>
<g id="Canvas" transform="translate(293 36)">
<g id="logo 2">
<g id="Canvas">
<g id="logo">
<g id="note list">
<g id="Vector">
<use xlink:href="#path0_fill" transform="translate(19 -36)" fill="#FAFAFA"/>
</g>
</g>
<g id="Rectangle">
<g id="Vector">
<use xlink:href="#path1_fill" transform="translate(-287 117)" fill="#FAFAFA"/>
</g>
</g>
<g id="Rectangle">
<g id="Vector">
<use xlink:href="#path1_fill" transform="translate(-288 -36)" fill="#FAFAFA"/>
</g>
</g>
<g id="Rectangle">
<g id="Vector">
<use xlink:href="#path2_fill" transform="translate(-293 -36)" fill="#FAFAFA"/>
</g>
</g>
<g id="Just">
<g id="Vector">
<use xlink:href="#path3_fill" transform="translate(-277.273 -10.375)" fill="#FAFAFA"/>
</g>
</g>
</g>
</g>
</g>
</g>
<defs>
<path id="path0_fill" fill-rule="evenodd" d="M 114.783 160L 13.9138 160C 6.22941 160 0 153.728 0 146.081L 0 13.9191C 0 6.23177 6.27219 0 13.9191 0L 146.081 0C 153.768 0 160 6.22271 160 13.8717L 160 107.826L 160 111.304L 118.261 160L 114.783 160ZM 6.95652 41.7391L 6.95652 146.096C 6.95652 149.992 10.0944 153.043 13.9651 153.043L 111.304 153.043L 111.304 118.302C 111.304 110.515 117.527 104.348 125.203 104.348L 153.043 104.348L 153.043 41.7391L 6.95652 41.7391ZM 6.95652 34.7826L 6.95652 13.9043C 6.95652 10.0672 10.0078 6.95652 13.9043 6.95652L 146.096 6.95652C 149.933 6.95652 153.043 10.0866 153.043 13.9607L 153.043 34.7826L 6.95652 34.7826ZM 118.261 149.565L 118.261 118.322C 118.261 114.446 121.396 111.304 125.195 111.304L 150.956 111.304L 118.261 149.565ZM 55.6522 90.4348L 55.6522 97.3913L 104.348 97.3913L 104.348 90.4348L 55.6522 90.4348ZM 20.8696 83.4783L 20.8696 104.348L 41.7391 104.348L 41.7391 83.4783L 20.8696 83.4783ZM 27.8261 90.4348L 27.8261 97.3913L 34.7826 97.3913L 34.7826 90.4348L 27.8261 90.4348ZM 55.6522 62.6087L 55.6522 69.5652L 139.13 69.5652L 139.13 62.6087L 55.6522 62.6087ZM 20.8696 55.6522L 20.8696 76.5217L 41.7391 76.5217L 41.7391 55.6522L 20.8696 55.6522ZM 27.8261 62.6087L 27.8261 69.5652L 34.7826 69.5652L 34.7826 62.6087L 27.8261 62.6087ZM 55.6522 118.261L 55.6522 125.217L 97.3913 125.217L 97.3913 118.261L 55.6522 118.261ZM 20.8696 111.304L 20.8696 132.174L 41.7391 132.174L 41.7391 111.304L 20.8696 111.304ZM 27.8261 118.261L 27.8261 125.217L 34.7826 125.217L 34.7826 118.261L 27.8261 118.261Z"/>
<path id="path1_fill" d="M 0 0L 320 0L 320 7L 0 7L 0 0Z"/>
<path id="path2_fill" d="M 0 0L 7 0L 7 160L 0 160L 0 0Z"/>
<path id="path3_fill" d="M 51.0468 0L 64.6172 0L 64.6172 72.492C 64.6172 82.289 61.664 89.953 55.7578 95.484C 49.8984 101.016 42.0703 103.781 32.2734 103.781C 22.1015 103.781 14.1796 101.18 8.50784 95.977C 2.83594 90.773 1.15814e-07 83.484 1.15814e-07 74.109L 13.5 74.109C 13.5 79.969 15.0937 84.539 18.2812 87.82C 21.5156 91.102 26.1796 92.742 32.2734 92.742C 37.8515 92.742 42.3515 90.984 45.7734 87.469C 49.2422 83.953 51 79.031 51.0468 72.703L 51.0468 0ZM 132.539 94.852C 127.476 100.805 120.046 103.781 110.25 103.781C 102.14 103.781 95.9531 101.437 91.6875 96.75C 87.4687 92.016 85.3359 85.031 85.289 75.797L 85.289 26.2969L 98.2964 26.2969L 98.2964 75.445C 98.2964 86.977 102.984 92.742 112.359 92.742C 122.296 92.742 128.906 89.039 132.187 81.633L 132.187 26.2969L 145.195 26.2969L 145.195 102.375L 132.82 102.375L 132.539 94.852ZM 209.32 82.195C 209.32 78.68 207.984 75.961 205.312 74.039C 202.687 72.07 198.07 70.383 191.461 68.977C 184.898 67.5703 179.671 65.8828 175.781 63.9141C 171.937 61.9453 169.078 59.6016 167.203 56.8828C 165.375 54.1641 164.461 50.9297 164.461 47.1797C 164.461 40.9453 167.085 35.6719 172.335 31.3594C 177.632 27.0469 184.382 24.8906 192.585 24.8906C 201.211 24.8906 208.195 27.1172 213.539 31.5703C 218.929 36.0234 221.625 41.7188 221.625 48.6562L 208.546 48.6562C 208.546 45.0938 207.023 42.0234 203.976 39.4453C 200.976 36.8672 197.179 35.5781 192.585 35.5781C 187.851 35.5781 184.148 36.6094 181.476 38.6719C 178.804 40.7344 177.468 43.4297 177.468 46.7578C 177.468 49.8984 178.711 52.2656 181.195 53.8594C 183.679 55.4531 188.156 56.9766 194.625 58.4297C 201.14 59.8828 206.414 61.6172 210.445 63.6328C 214.476 65.6484 217.453 68.0859 219.375 70.945C 221.343 73.758 222.328 77.203 222.328 81.281C 222.328 88.078 219.609 93.539 214.171 97.664C 208.734 101.742 201.679 103.781 193.007 103.781C 186.914 103.781 181.523 102.703 176.835 100.547C 172.148 98.391 168.468 95.391 165.796 91.547C 163.171 87.656 161.859 83.461 161.859 78.961L 174.867 78.961C 175.101 83.32 176.835 86.789 180.07 89.367C 183.351 91.898 187.664 93.164 193.007 93.164C 197.929 93.164 201.867 92.18 204.82 90.211C 207.82 88.195 209.32 85.523 209.32 82.195ZM 256.921 7.875L 256.921 26.2969L 271.125 26.2969L 271.125 36.3516L 256.921 36.3516L 256.921 83.531C 256.921 86.578 257.554 88.875 258.82 90.422C 260.085 91.922 262.242 92.672 265.289 92.672C 266.789 92.672 268.851 92.391 271.476 91.828L 271.476 102.375C 268.054 103.313 264.726 103.781 261.492 103.781C 255.679 103.781 251.296 102.023 248.343 98.508C 245.39 94.992 243.914 90 243.914 83.531L 243.914 36.3516L 230.062 36.3516L 230.062 26.2969L 243.914 26.2969L 243.914 7.875L 256.921 7.875Z"/>
</defs>
</svg>
